<svg width="320" height="214" viewBox="0 0 320 214" fill="none" xmlns="http://www.w3.org/2000/svg">
<path d="M-146 31.9256C-115.869 26.9013 -55.6069 -3.87295 4.65509 6.80382C64.9171 17.4806 95.0481 85.6235 155.31 85.3095C215.572 84.9955 245.703 17.2712 305.965 5.23371C366.227 -6.80382 396.358 26.1686 456.62 25.1218C516.882 24.0751 577.144 5.02436 607.275 0V232.377H-146V31.9256Z" fill="#C5F4C7" fill-opacity="0.34"/>
<path d="M-146 217.722C-95.7816 193.019 4.65509 98.8124 105.092 94.2067C205.529 89.6011 255.747 189.146 356.184 194.694C456.62 200.242 557.057 136.495 607.275 121.945V232.377H-146V217.722Z" fill="#6DE283" fill-opacity="0.2"/>
</svg>
